<?xml version="1.0" encoding="UTF-8" standalone="no"?>
<!-- Created with Inkscape (http://www.inkscape.org/) -->

<svg
   xmlns:dc="http://purl.org/dc/elements/1.1/"
   xmlns:cc="http://creativecommons.org/ns#"
   xmlns:rdf="http://www.w3.org/1999/02/22-rdf-syntax-ns#"
   xmlns:svg="http://www.w3.org/2000/svg"
   xmlns="http://www.w3.org/2000/svg"
   xmlns:xlink="http://www.w3.org/1999/xlink"
   xmlns:sodipodi="http://sodipodi.sourceforge.net/DTD/sodipodi-0.dtd"
   xmlns:inkscape="http://www.inkscape.org/namespaces/inkscape"
   width="744.09448819"
   height="1052.3622047"
   id="svg2"
   version="1.1"
   inkscape:version="0.48.2 r9819"
   sodipodi:docname="sheetMiddle.svg">
  <defs
     id="defs4" />
  <sodipodi:namedview
     id="base"
     pagecolor="#ffffff"
     bordercolor="#666666"
     borderopacity="1.0"
     inkscape:pageopacity="0.0"
     inkscape:pageshadow="2"
     inkscape:zoom="0.88817149"
     inkscape:cx="301.27108"
     inkscape:cy="540"
     inkscape:document-units="px"
     inkscape:current-layer="layer1"
     showgrid="true"
     inkscape:snap-global="true"
     inkscape:window-width="1916"
     inkscape:window-height="1036"
     inkscape:window-x="4"
     inkscape:window-y="0"
     inkscape:window-maximized="1">
    <inkscape:grid
       type="xygrid"
       id="grid2987" />
  </sodipodi:namedview>
  <metadata
     id="metadata7">
    <rdf:RDF>
      <cc:Work
         rdf:about="">
        <dc:format>image/svg+xml</dc:format>
        <dc:type
           rdf:resource="http://purl.org/dc/dcmitype/StillImage" />
        <dc:title />
      </cc:Work>
    </rdf:RDF>
  </metadata>
  <g
     inkscape:groupmode="layer"
     id="layer3"
     inkscape:label="Image"
     style="display:inline">
    <image
       y="56.170837"
       x="1.811884e-13"
       id="image3919"
       xlink:href="file:///Users/eqo/src/rails/dartsduino/dartsduino-doc/app/images/back.jpg"
       height="916.19135"
       width="740.75037" />
  </g>
  <g
     inkscape:label="Layer 1"
     inkscape:groupmode="layer"
     id="layer1">
    <path
       style="fill:#dbfcfb;fill-opacity:0.50222222;stroke:#000000;stroke-width:4.02760696;stroke-linecap:butt;stroke-linejoin:miter;stroke-miterlimit:4;stroke-opacity:1;stroke-dasharray:none"
       d="M 374.21875 120.5625 C 213.07013 120.5625 82.4375 251.22639 82.4375 412.375 C 82.4375 573.52361 213.07013 704.15625 374.21875 704.15625 C 535.36737 704.15625 666 573.52361 666 412.375 C 666 251.22639 535.36737 120.5625 374.21875 120.5625 z M 348 142.375 C 352.41828 142.375 356 145.95672 356 150.375 C 356 154.79328 352.41828 158.375 348 158.375 C 343.58172 158.375 340 154.79328 340 150.375 C 340 145.95672 343.58172 142.375 348 142.375 z M 394 142.375 C 398.41828 142.375 402 145.95672 402 150.375 C 402 154.79328 398.41828 158.375 394 158.375 C 389.58172 158.375 386 154.79328 386 150.375 C 386 145.95672 389.58172 142.375 394 142.375 z M 314 148.375 C 318.41828 148.375 322 151.95672 322 156.375 C 322 160.79328 318.41828 164.375 314 164.375 C 309.58172 164.375 306 160.79328 306 156.375 C 306 151.95672 309.58172 148.375 314 148.375 z M 434 148.375 C 438.41828 148.375 442 151.95672 442 156.375 C 442 160.79328 438.41828 164.375 434 164.375 C 429.58172 164.375 426 160.79328 426 156.375 C 426 151.95672 429.58172 148.375 434 148.375 z M 474 160.375 C 478.41828 160.375 482 163.95672 482 168.375 C 482 172.79328 478.41828 176.375 474 176.375 C 469.58172 176.375 466 172.79328 466 168.375 C 466 163.95672 469.58172 160.375 474 160.375 z M 270 162.375 C 274.41828 162.375 278 165.95672 278 170.375 C 278 174.79328 274.41828 178.375 270 178.375 C 265.58172 178.375 262 174.79328 262 170.375 C 262 165.95672 265.58172 162.375 270 162.375 z M 354 170.375 C 358.41828 170.375 362 173.95672 362 178.375 C 362 182.79328 358.41828 186.375 354 186.375 C 349.58172 186.375 346 182.79328 346 178.375 C 346 173.95672 349.58172 170.375 354 170.375 z M 394 170.375 C 398.41828 170.375 402 173.95672 402 178.375 C 402 182.79328 398.41828 186.375 394 186.375 C 389.58172 186.375 386 182.79328 386 178.375 C 386 173.95672 389.58172 170.375 394 170.375 z M 322 174.375 C 326.41828 174.375 330 177.95672 330 182.375 C 330 186.79328 326.41828 190.375 322 190.375 C 317.58172 190.375 314 186.79328 314 182.375 C 314 177.95672 317.58172 174.375 322 174.375 z M 428 174.375 C 432.41828 174.375 436 177.95672 436 182.375 C 436 186.79328 432.41828 190.375 428 190.375 C 423.58172 190.375 420 186.79328 420 182.375 C 420 177.95672 423.58172 174.375 428 174.375 z M 240 178.375 C 244.41828 178.375 248 181.95672 248 186.375 C 248 190.79328 244.41828 194.375 240 194.375 C 235.58172 194.375 232 190.79328 232 186.375 C 232 181.95672 235.58172 178.375 240 178.375 z M 510 178.375 C 514.41828 178.375 518 181.95672 518 186.375 C 518 190.79328 514.41828 194.375 510 194.375 C 505.58172 194.375 502 190.79328 502 186.375 C 502 181.95672 505.58172 178.375 510 178.375 z M 284 184.375 C 288.41828 184.375 292 187.95672 292 192.375 C 292 196.79328 288.41828 200.375 284 200.375 C 279.58172 200.375 276 196.79328 276 192.375 C 276 187.95672 279.58172 184.375 284 184.375 z M 462 186.375 C 466.41828 186.375 470 189.95672 470 194.375 C 470 198.79328 466.41828 202.375 462 202.375 C 457.58172 202.375 454 198.79328 454 194.375 C 454 189.95672 457.58172 186.375 462 186.375 z M 372 200.375 C 376.41828 200.375 380 203.95672 380 208.375 C 380 212.79328 376.41828 216.375 372 216.375 C 367.58172 216.375 364 212.79328 364 208.375 C 364 203.95672 367.58172 200.375 372 200.375 z M 544 200.375 C 548.41828 200.375 552 203.95672 552 208.375 C 552 212.79328 548.41828 216.375 544 216.375 C 539.58172 216.375 536 212.79328 536 208.375 C 536 203.95672 539.58172 200.375 544 200.375 z M 204 204.375 C 208.41828 204.375 212 207.95672 212 212.375 C 212 216.79328 208.41828 220.375 204 220.375 C 199.58172 220.375 196 216.79328 196 212.375 C 196 207.95672 199.58172 204.375 204 204.375 z M 252 204.375 C 256.41828 204.375 260 207.95672 260 212.375 C 260 216.79328 256.41828 220.375 252 220.375 C 247.58172 220.375 244 216.79328 244 212.375 C 244 207.95672 247.58172 204.375 252 204.375 z M 494 204.375 C 498.41828 204.375 502 207.95672 502 212.375 C 502 216.79328 498.41828 220.375 494 220.375 C 489.58172 220.375 486 216.79328 486 212.375 C 486 207.95672 489.58172 204.375 494 204.375 z M 440 206.375 C 444.41828 206.375 448 209.95672 448 214.375 C 448 218.79328 444.41828 222.375 440 222.375 C 435.58172 222.375 432 218.79328 432 214.375 C 432 209.95672 435.58172 206.375 440 206.375 z M 308 210.375 C 312.41828 210.375 316 213.95672 316 218.375 C 316 222.79328 312.41828 226.375 308 226.375 C 303.58172 226.375 300 222.79328 300 218.375 C 300 213.95672 303.58172 210.375 308 210.375 z M 524 222.375 C 528.41828 222.375 532 225.95672 532 230.375 C 532 234.79328 528.41828 238.375 524 238.375 C 519.58172 238.375 516 234.79328 516 230.375 C 516 225.95672 519.58172 222.375 524 222.375 z M 222 224.375 C 226.41828 224.375 230 227.95672 230 232.375 C 230 236.79328 226.41828 240.375 222 240.375 C 217.58172 240.375 214 236.79328 214 232.375 C 214 227.95672 217.58172 224.375 222 224.375 z M 572 224.375 C 576.41828 224.375 580 227.95672 580 232.375 C 580 236.79328 576.41828 240.375 572 240.375 C 567.58172 240.375 564 236.79328 564 232.375 C 564 227.95672 567.58172 224.375 572 224.375 z M 360 230.375 C 364.41828 230.375 368 233.95672 368 238.375 C 368 242.79328 364.41828 246.375 360 246.375 C 355.58172 246.375 352 242.79328 352 238.375 C 352 233.95672 355.58172 230.375 360 230.375 z M 388 230.375 C 392.41828 230.375 396 233.95672 396 238.375 C 396 242.79328 392.41828 246.375 388 246.375 C 383.58172 246.375 380 242.79328 380 238.375 C 380 233.95672 383.58172 230.375 388 230.375 z M 176 232.375 C 180.41828 232.375 184 235.95672 184 240.375 C 184 244.79328 180.41828 248.375 176 248.375 C 171.58172 248.375 168 244.79328 168 240.375 C 168 235.95672 171.58172 232.375 176 232.375 z M 414 232.375 C 418.41828 232.375 422 235.95672 422 240.375 C 422 244.79328 418.41828 248.375 414 248.375 C 409.58172 248.375 406 244.79328 406 240.375 C 406 235.95672 409.58172 232.375 414 232.375 z M 336 234.375 C 340.41828 234.375 344 237.95672 344 242.375 C 344 246.79328 340.41828 250.375 336 250.375 C 331.58172 250.375 328 246.79328 328 242.375 C 328 237.95672 331.58172 234.375 336 234.375 z M 492 236.375 C 496.41828 236.375 500 239.95672 500 244.375 C 500 248.79328 496.41828 252.375 492 252.375 C 487.58172 252.375 484 248.79328 484 244.375 C 484 239.95672 487.58172 236.375 492 236.375 z M 256 240.375 C 260.41828 240.375 264 243.95672 264 248.375 C 264 252.79328 260.41828 256.375 256 256.375 C 251.58172 256.375 248 252.79328 248 248.375 C 248 243.95672 251.58172 240.375 256 240.375 z M 444 240.375 C 448.41828 240.375 452 243.95672 452 248.375 C 452 252.79328 448.41828 256.375 444 256.375 C 439.58172 256.375 436 252.79328 436 248.375 C 436 243.95672 439.58172 240.375 444 240.375 z M 310 242.375 C 314.41828 242.375 318 245.95672 318 250.375 C 318 254.79328 314.41828 258.375 310 258.375 C 305.58172 258.375 302 254.79328 302 250.375 C 302 245.95672 305.58172 242.375 310 242.375 z M 552 246.375 C 556.41828 246.375 560 249.95672 560 254.375 C 560 258.79328 556.41828 262.375 552 262.375 C 547.58172 262.375 544 258.79328 544 254.375 C 544 249.95672 547.58172 246.375 552 246.375 z M 198 250.375 C 202.41828 250.375 206 253.95672 206 258.375 C 206 262.79328 202.41828 266.375 198 266.375 C 193.58172 266.375 190 262.79328 190 258.375 C 190 253.95672 193.58172 250.375 198 250.375 z M 284 254.375 C 288.41828 254.375 292 257.95672 292 262.375 C 292 266.79328 288.41828 270.375 284 270.375 C 279.58172 270.375 276 266.79328 276 262.375 C 276 257.95672 279.58172 254.375 284 254.375 z M 466 256.375 C 470.41828 256.375 474 259.95672 474 264.375 C 474 268.79328 470.41828 272.375 466 272.375 C 461.58172 272.375 458 268.79328 458 264.375 C 458 259.95672 461.58172 256.375 466 256.375 z M 598 258.375 C 602.41828 258.375 606 261.95672 606 266.375 C 606 270.79328 602.41828 274.375 598 274.375 C 593.58172 274.375 590 270.79328 590 266.375 C 590 261.95672 593.58172 258.375 598 258.375 z M 376 260.375 C 380.41828 260.375 384 263.95672 384 268.375 C 384 272.79328 380.41828 276.375 376 276.375 C 371.58172 276.375 368 272.79328 368 268.375 C 368 263.95672 371.58172 260.375 376 260.375 z M 486 266.375 C 490.41828 266.375 494 269.95672 494 274.375 C 494 278.79328 490.41828 282.375 486 282.375 C 481.58172 282.375 478 278.79328 478 274.375 C 478 269.95672 481.58172 266.375 486 266.375 z M 150 268.375 C 154.41828 268.375 158 271.95672 158 276.375 C 158 280.79328 154.41828 284.375 150 284.375 C 145.58172 284.375 142 280.79328 142 276.375 C 142 271.95672 145.58172 268.375 150 268.375 z M 332 268.375 C 336.41828 268.375 340 271.95672 340 276.375 C 340 280.79328 336.41828 284.375 332 284.375 C 327.58172 284.375 324 280.79328 324 276.375 C 324 271.95672 327.58172 268.375 332 268.375 z M 262 270.375 C 266.41828 270.375 270 273.95672 270 278.375 C 270 282.79328 266.41828 286.375 262 286.375 C 257.58172 286.375 254 282.79328 254 278.375 C 254 273.95672 257.58172 270.375 262 270.375 z M 416 272.375 C 420.41828 272.375 424 275.95672 424 280.375 C 424 284.79328 420.41828 288.375 416 288.375 C 411.58172 288.375 408 284.79328 408 280.375 C 408 275.95672 411.58172 272.375 416 272.375 z M 572 272.375 C 576.41828 272.375 580 275.95672 580 280.375 C 580 284.79328 576.41828 288.375 572 288.375 C 567.58172 288.375 564 284.79328 564 280.375 C 564 275.95672 567.58172 272.375 572 272.375 z M 532 278.375 C 536.41828 278.375 540 281.95672 540 286.375 C 540 290.79328 536.41828 294.375 532 294.375 C 527.58172 294.375 524 290.79328 524 286.375 C 524 281.95672 527.58172 278.375 532 278.375 z M 178 280.375 C 182.41828 280.375 186 283.95672 186 288.375 C 186 292.79328 182.41828 296.375 178 296.375 C 173.58172 296.375 170 292.79328 170 288.375 C 170 283.95672 173.58172 280.375 178 280.375 z M 212 280.375 C 216.41828 280.375 220 283.95672 220 288.375 C 220 292.79328 216.41828 296.375 212 296.375 C 207.58172 296.375 204 292.79328 204 288.375 C 204 283.95672 207.58172 280.375 212 280.375 z M 458 286.375 C 462.41828 286.375 466 289.95672 466 294.375 C 466 298.79328 462.41828 302.375 458 302.375 C 453.58172 302.375 450 298.79328 450 294.375 C 450 289.95672 453.58172 286.375 458 286.375 z M 504 286.375 C 508.41828 286.375 512 289.95672 512 294.375 C 512 298.79328 508.41828 302.375 504 302.375 C 499.58172 302.375 496 298.79328 496 294.375 C 496 289.95672 499.58172 286.375 504 286.375 z M 294 288.375 C 298.41828 288.375 302 291.95672 302 296.375 C 302 300.79328 298.41828 304.375 294 304.375 C 289.58172 304.375 286 300.79328 286 296.375 C 286 291.95672 289.58172 288.375 294 288.375 z M 244 290.375 C 248.41828 290.375 252 293.95672 252 298.375 C 252 302.79328 248.41828 306.375 244 306.375 C 239.58172 306.375 236 302.79328 236 298.375 C 236 293.95672 239.58172 290.375 244 290.375 z M 618 292.375 C 622.41828 292.375 626 295.95672 626 300.375 C 626 304.79328 622.41828 308.375 618 308.375 C 613.58172 308.375 610 304.79328 610 300.375 C 610 295.95672 613.58172 292.375 618 292.375 z M 134 300.375 C 138.41828 300.375 142 303.95672 142 308.375 C 142 312.79328 138.41828 316.375 134 316.375 C 129.58172 316.375 126 312.79328 126 308.375 C 126 303.95672 129.58172 300.375 134 300.375 z M 590 304.375 C 594.41828 304.375 598 307.95672 598 312.375 C 598 316.79328 594.41828 320.375 590 320.375 C 585.58172 320.375 582 316.79328 582 312.375 C 582 307.95672 585.58172 304.375 590 304.375 z M 374 306.375 C 378.41828 306.375 382 309.95672 382 314.375 C 382 318.79328 378.41828 322.375 374 322.375 C 369.58172 322.375 366 318.79328 366 314.375 C 366 309.95672 369.58172 306.375 374 306.375 z M 522 306.375 C 526.41828 306.375 530 309.95672 530 314.375 C 530 318.79328 526.41828 322.375 522 322.375 C 517.58172 322.375 514 318.79328 514 314.375 C 514 309.95672 517.58172 306.375 522 306.375 z M 404 308.375 C 408.41828 308.375 412 311.95672 412 316.375 C 412 320.79328 408.41828 324.375 404 324.375 C 399.58172 324.375 396 320.79328 396 316.375 C 396 311.95672 399.58172 308.375 404 308.375 z M 230 310.375 C 234.41828 310.375 238 313.95672 238 318.375 C 238 322.79328 234.41828 326.375 230 326.375 C 225.58172 326.375 222 322.79328 222 318.375 C 222 313.95672 225.58172 310.375 230 310.375 z M 346 310.375 C 350.41828 310.375 354 313.95672 354 318.375 C 354 322.79328 350.41828 326.375 346 326.375 C 341.58172 326.375 338 322.79328 338 318.375 C 338 313.95672 341.58172 310.375 346 310.375 z M 486 314.375 C 490.41828 314.375 494 317.95672 494 322.375 C 494 326.79328 490.41828 330.375 486 330.375 C 481.58172 330.375 478 326.79328 478 322.375 C 478 317.95672 481.58172 314.375 486 314.375 z M 162 316.375 C 166.41828 316.375 170 319.95672 170 324.375 C 170 328.79328 166.41828 332.375 162 332.375 C 157.58172 332.375 154 328.79328 154 324.375 C 154 319.95672 157.58172 316.375 162 316.375 z M 262 318.375 C 266.41828 318.375 270 321.95672 270 326.375 C 270 330.79328 266.41828 334.375 262 334.375 C 257.58172 334.375 254 330.79328 254 326.375 C 254 321.95672 257.58172 318.375 262 318.375 z M 430 318.375 C 434.41828 318.375 438 321.95672 438 326.375 C 438 330.79328 434.41828 334.375 430 334.375 C 425.58172 334.375 422 330.79328 422 326.375 C 422 321.95672 425.58172 318.375 430 318.375 z M 318 320.375 C 322.41828 320.375 326 323.95672 326 328.375 C 326 332.79328 322.41828 336.375 318 336.375 C 313.58172 336.375 310 332.79328 310 328.375 C 310 323.95672 313.58172 320.375 318 320.375 z M 210 330.375 C 214.41828 330.375 218 333.95672 218 338.375 C 218 342.79328 214.41828 346.375 210 346.375 C 205.58172 346.375 202 342.79328 202 338.375 C 202 333.95672 205.58172 330.375 210 330.375 z M 536 330.375 C 540.41828 330.375 544 333.95672 544 338.375 C 544 342.79328 540.41828 346.375 536 346.375 C 531.58172 346.375 528 342.79328 528 338.375 C 528 333.95672 531.58172 330.375 536 330.375 z M 632 330.375 C 636.41828 330.375 640 333.95672 640 338.375 C 640 342.79328 636.41828 346.375 632 346.375 C 627.58172 346.375 624 342.79328 624 338.375 C 624 333.95672 627.58172 330.375 632 330.375 z M 568 332.375 C 572.41828 332.375 576 335.95672 576 340.375 C 576 344.79328 572.41828 348.375 568 348.375 C 563.58172 348.375 560 344.79328 560 340.375 C 560 335.95672 563.58172 332.375 568 332.375 z M 184 338.375 C 188.41828 338.375 192 341.95672 192 346.375 C 192 350.79328 188.41828 354.375 184 354.375 C 179.58172 354.375 176 350.79328 176 346.375 C 176 341.95672 179.58172 338.375 184 338.375 z M 454 340.375 C 458.41828 340.375 462 343.95672 462 348.375 C 462 352.79328 458.41828 356.375 454 356.375 C 449.58172 356.375 446 352.79328 446 348.375 C 446 343.95672 449.58172 340.375 454 340.375 z M 606 340.375 C 610.41828 340.375 614 343.95672 614 348.375 C 614 352.79328 610.41828 356.375 606 356.375 C 601.58172 356.375 598 352.79328 598 348.375 C 598 343.95672 601.58172 340.375 606 340.375 z M 116 342.375 C 120.41828 342.375 124 345.95672 124 350.375 C 124 354.79328 120.41828 358.375 116 358.375 C 111.58172 358.375 108 354.79328 108 350.375 C 108 345.95672 111.58172 342.375 116 342.375 z M 298 342.375 C 302.41828 342.375 306 345.95672 306 350.375 C 306 354.79328 302.41828 358.375 298 358.375 C 293.58172 358.375 290 354.79328 290 350.375 C 290 345.95672 293.58172 342.375 298 342.375 z M 148 346.375 C 152.41828 346.375 156 349.95672 156 354.375 C 156 358.79328 152.41828 362.375 148 362.375 C 143.58172 362.375 140 358.79328 140 354.375 C 140 349.95672 143.58172 346.375 148 346.375 z M 508 352.375 C 512.41828 352.375 516 355.95672 516 360.375 C 516 364.79328 512.41828 368.375 508 368.375 C 503.58172 368.375 500 364.79328 500 360.375 C 500 355.95672 503.58172 352.375 508 352.375 z M 544 354.375 C 548.41828 354.375 552 357.95672 552 362.375 C 552 366.79328 548.41828 370.375 544 370.375 C 539.58172 370.375 536 366.79328 536 362.375 C 536 357.95672 539.58172 354.375 544 354.375 z M 244 356.375 C 248.41828 356.375 252 359.95672 252 364.375 C 252 368.79328 248.41828 372.375 244 372.375 C 239.58172 372.375 236 368.79328 236 364.375 C 236 359.95672 239.58172 356.375 244 356.375 z M 206 358.375 C 210.41828 358.375 214 361.95672 214 366.375 C 214 370.79328 210.41828 374.375 206 374.375 C 201.58172 374.375 198 370.79328 198 366.375 C 198 361.95672 201.58172 358.375 206 358.375 z M 468 366.375 C 472.41828 366.375 476 369.95672 476 374.375 C 476 378.79328 472.41828 382.375 468 382.375 C 463.58172 382.375 460 378.79328 460 374.375 C 460 369.95672 463.58172 366.375 468 366.375 z M 394 368.375 C 398.41828 368.375 402 371.95672 402 376.375 C 402 380.79328 398.41828 384.375 394 384.375 C 389.58172 384.375 386 380.79328 386 376.375 C 386 371.95672 389.58172 368.375 394 368.375 z M 284 370.375 C 288.41828 370.375 292 373.95672 292 378.375 C 292 382.79328 288.41828 386.375 284 386.375 C 279.58172 386.375 276 382.79328 276 378.375 C 276 373.95672 279.58172 370.375 284 370.375 z M 640 372.375 C 644.41828 372.375 648 375.95672 648 380.375 C 648 384.79328 644.41828 388.375 640 388.375 C 635.58172 388.375 632 384.79328 632 380.375 C 632 375.95672 635.58172 372.375 640 372.375 z M 610 376.375 C 614.41828 376.375 618 379.95672 618 384.375 C 618 388.79328 614.41828 392.375 610 392.375 C 605.58172 392.375 602 388.79328 602 384.375 C 602 379.95672 605.58172 376.375 610 376.375 z M 112 378.375 C 116.41828 378.375 120 381.95672 120 386.375 C 120 390.79328 116.41828 394.375 112 394.375 C 107.58172 394.375 104 390.79328 104 386.375 C 104 381.95672 107.58172 378.375 112 378.375 z M 550 378.375 C 554.41828 378.375 558 381.95672 558 386.375 C 558 390.79328 554.41828 394.375 550 394.375 C 545.58172 394.375 542 390.79328 542 386.375 C 542 381.95672 545.58172 378.375 550 378.375 z M 368 380.375 C 372.41828 380.375 376 383.95672 376 388.375 C 376 392.79328 372.41828 396.375 368 396.375 C 363.58172 396.375 360 392.79328 360 388.375 C 360 383.95672 363.58172 380.375 368 380.375 z M 142 382.375 C 146.41828 382.375 150 385.95672 150 390.375 C 150 394.79328 146.41828 398.375 142 398.375 C 137.58172 398.375 134 394.79328 134 390.375 C 134 385.95672 137.58172 382.375 142 382.375 z M 204 386.375 C 208.41828 386.375 212 389.95672 212 394.375 C 212 398.79328 208.41828 402.375 204 402.375 C 199.58172 402.375 196 398.79328 196 394.375 C 196 389.95672 199.58172 386.375 204 386.375 z M 516 392.375 C 520.41828 392.375 524 395.95672 524 400.375 C 524 404.79328 520.41828 408.375 516 408.375 C 511.58172 408.375 508 404.79328 508 400.375 C 508 395.95672 511.58172 392.375 516 392.375 z M 580 392.375 C 584.41828 392.375 588 395.95672 588 400.375 C 588 404.79328 584.41828 408.375 580 408.375 C 575.58172 408.375 572 404.79328 572 400.375 C 572 395.95672 575.58172 392.375 580 392.375 z M 342 394.375 C 346.41828 394.375 350 397.95672 350 402.375 C 350 406.79328 346.41828 410.375 342 410.375 C 337.58172 410.375 334 406.79328 334 402.375 C 334 397.95672 337.58172 394.375 342 394.375 z M 472 394.375 C 476.41828 394.375 480 397.95672 480 402.375 C 480 406.79328 476.41828 410.375 472 410.375 C 467.58172 410.375 464 406.79328 464 402.375 C 464 397.95672 467.58172 394.375 472 394.375 z M 392 396.375 C 396.41828 396.375 400 399.95672 400 404.375 C 400 408.79328 396.41828 412.375 392 412.375 C 387.58172 412.375 384 408.79328 384 404.375 C 384 399.95672 387.58172 396.375 392 396.375 z M 174 400.375 C 178.41828 400.375 182 403.95672 182 408.375 C 182 412.79328 178.41828 416.375 174 416.375 C 169.58172 416.375 166 412.79328 166 408.375 C 166 403.95672 169.58172 400.375 174 400.375 z M 236 400.375 C 240.41828 400.375 244 403.95672 244 408.375 C 244 412.79328 240.41828 416.375 236 416.375 C 231.58172 416.375 228 412.79328 228 408.375 C 228 403.95672 231.58172 400.375 236 400.375 z M 280 400.375 C 284.41828 400.375 288 403.95672 288 408.375 C 288 412.79328 284.41828 416.375 280 416.375 C 275.58172 416.375 272 412.79328 272 408.375 C 272 403.95672 275.58172 400.375 280 400.375 z M 550 406.375 C 554.41828 406.375 558 409.95672 558 414.375 C 558 418.79328 554.41828 422.375 550 422.375 C 545.58172 422.375 542 418.79328 542 414.375 C 542 409.95672 545.58172 406.375 550 406.375 z M 610 410.375 C 614.41828 410.375 618 413.95672 618 418.375 C 618 422.79328 614.41828 426.375 610 426.375 C 605.58172 426.375 602 422.79328 602 418.375 C 602 413.95672 605.58172 410.375 610 410.375 z M 364 412.375 C 368.41828 412.375 372 415.95672 372 420.375 C 372 424.79328 368.41828 428.375 364 428.375 C 359.58172 428.375 356 424.79328 356 420.375 C 356 415.95672 359.58172 412.375 364 412.375 z M 140 414.375 C 144.41828 414.375 148 417.95672 148 422.375 C 148 426.79328 144.41828 430.375 140 430.375 C 135.58172 430.375 132 426.79328 132 422.375 C 132 417.95672 135.58172 414.375 140 414.375 z M 206 414.375 C 210.41828 414.375 214 417.95672 214 422.375 C 214 426.79328 210.41828 430.375 206 430.375 C 201.58172 430.375 198 426.79328 198 422.375 C 198 417.95672 201.58172 414.375 206 414.375 z M 642 416.375 C 646.41828 416.375 650 419.95672 650 424.375 C 650 428.79328 646.41828 432.375 642 432.375 C 637.58172 432.375 634 428.79328 634 424.375 C 634 419.95672 637.58172 416.375 642 416.375 z M 112 422.375 C 116.41828 422.375 120 425.95672 120 430.375 C 120 434.79328 116.41828 438.375 112 438.375 C 107.58172 438.375 104 434.79328 104 430.375 C 104 425.95672 107.58172 422.375 112 422.375 z M 472 424.375 C 476.41828 424.375 480 427.95672 480 432.375 C 480 436.79328 476.41828 440.375 472 440.375 C 467.58172 440.375 464 436.79328 464 432.375 C 464 427.95672 467.58172 424.375 472 424.375 z M 286 428.375 C 290.41828 428.375 294 431.95672 294 436.375 C 294 440.79328 290.41828 444.375 286 444.375 C 281.58172 444.375 278 440.79328 278 436.375 C 278 431.95672 281.58172 428.375 286 428.375 z M 390 428.375 C 394.41828 428.375 398 431.95672 398 436.375 C 398 440.79328 394.41828 444.375 390 444.375 C 385.58172 444.375 382 440.79328 382 436.375 C 382 431.95672 385.58172 428.375 390 428.375 z M 548 432.375 C 552.41828 432.375 556 435.95672 556 440.375 C 556 444.79328 552.41828 448.375 548 448.375 C 543.58172 448.375 540 444.79328 540 440.375 C 540 435.95672 543.58172 432.375 548 432.375 z M 510 438.375 C 514.41828 438.375 518 441.95672 518 446.375 C 518 450.79328 514.41828 454.375 510 454.375 C 505.58172 454.375 502 450.79328 502 446.375 C 502 441.95672 505.58172 438.375 510 438.375 z M 244 440.375 C 248.41828 440.375 252 443.95672 252 448.375 C 252 452.79328 248.41828 456.375 244 456.375 C 239.58172 456.375 236 452.79328 236 448.375 C 236 443.95672 239.58172 440.375 244 440.375 z M 206 444.375 C 210.41828 444.375 214 447.95672 214 452.375 C 214 456.79328 210.41828 460.375 206 460.375 C 201.58172 460.375 198 456.79328 198 452.375 C 198 447.95672 201.58172 444.375 206 444.375 z M 608 446.375 C 612.41828 446.375 616 449.95672 616 454.375 C 616 458.79328 612.41828 462.375 608 462.375 C 603.58172 462.375 600 458.79328 600 454.375 C 600 449.95672 603.58172 446.375 608 446.375 z M 456 450.375 C 460.41828 450.375 464 453.95672 464 458.375 C 464 462.79328 460.41828 466.375 456 466.375 C 451.58172 466.375 448 462.79328 448 458.375 C 448 453.95672 451.58172 450.375 456 450.375 z M 636 450.375 C 640.41828 450.375 644 453.95672 644 458.375 C 644 462.79328 640.41828 466.375 636 466.375 C 631.58172 466.375 628 462.79328 628 458.375 C 628 453.95672 631.58172 450.375 636 450.375 z M 300 454.375 C 304.41828 454.375 308 457.95672 308 462.375 C 308 466.79328 304.41828 470.375 300 470.375 C 295.58172 470.375 292 466.79328 292 462.375 C 292 457.95672 295.58172 454.375 300 454.375 z M 148 456.375 C 152.41828 456.375 156 459.95672 156 464.375 C 156 468.79328 152.41828 472.375 148 472.375 C 143.58172 472.375 140 468.79328 140 464.375 C 140 459.95672 143.58172 456.375 148 456.375 z M 572 456.375 C 576.41828 456.375 580 459.95672 580 464.375 C 580 468.79328 576.41828 472.375 572 472.375 C 567.58172 472.375 564 468.79328 564 464.375 C 564 459.95672 567.58172 456.375 572 456.375 z M 120 460.375 C 124.41828 460.375 128 463.95672 128 468.375 C 128 472.79328 124.41828 476.375 120 476.375 C 115.58172 476.375 112 472.79328 112 468.375 C 112 463.95672 115.58172 460.375 120 460.375 z M 184 462.375 C 188.41828 462.375 192 465.95672 192 470.375 C 192 474.79328 188.41828 478.375 184 478.375 C 179.58172 478.375 176 474.79328 176 470.375 C 176 465.95672 179.58172 462.375 184 462.375 z M 538 462.375 C 542.41828 462.375 546 465.95672 546 470.375 C 546 474.79328 542.41828 478.375 538 478.375 C 533.58172 478.375 530 474.79328 530 470.375 C 530 465.95672 533.58172 462.375 538 462.375 z M 218 464.375 C 222.41828 464.375 226 467.95672 226 472.375 C 226 476.79328 222.41828 480.375 218 480.375 C 213.58172 480.375 210 476.79328 210 472.375 C 210 467.95672 213.58172 464.375 218 464.375 z M 436 472.375 C 440.41828 472.375 444 475.95672 444 480.375 C 444 484.79328 440.41828 488.375 436 488.375 C 431.58172 488.375 428 484.79328 428 480.375 C 428 475.95672 431.58172 472.375 436 472.375 z M 494 474.375 C 498.41828 474.375 502 477.95672 502 482.375 C 502 486.79328 498.41828 490.375 494 490.375 C 489.58172 490.375 486 486.79328 486 482.375 C 486 477.95672 489.58172 474.375 494 474.375 z M 322 478.375 C 326.41828 478.375 330 481.95672 330 486.375 C 330 490.79328 326.41828 494.375 322 494.375 C 317.58172 494.375 314 490.79328 314 486.375 C 314 481.95672 317.58172 478.375 322 478.375 z M 266 480.375 C 270.41828 480.375 274 483.95672 274 488.375 C 274 492.79328 270.41828 496.375 266 496.375 C 261.58172 496.375 258 492.79328 258 488.375 C 258 483.95672 261.58172 480.375 266 480.375 z M 596 480.375 C 600.41828 480.375 604 483.95672 604 488.375 C 604 492.79328 600.41828 496.375 596 496.375 C 591.58172 496.375 588 492.79328 588 488.375 C 588 483.95672 591.58172 480.375 596 480.375 z M 410 484.375 C 414.41828 484.375 418 487.95672 418 492.375 C 418 496.79328 414.41828 500.375 410 500.375 C 405.58172 500.375 402 496.79328 402 492.375 C 402 487.95672 405.58172 484.375 410 484.375 z M 528 484.375 C 532.41828 484.375 536 487.95672 536 492.375 C 536 496.79328 532.41828 500.375 528 500.375 C 523.58172 500.375 520 496.79328 520 492.375 C 520 487.95672 523.58172 484.375 528 484.375 z M 160 488.375 C 164.41828 488.375 168 491.95672 168 496.375 C 168 500.79328 164.41828 504.375 160 504.375 C 155.58172 504.375 152 500.79328 152 496.375 C 152 491.95672 155.58172 488.375 160 488.375 z M 230 488.375 C 234.41828 488.375 238 491.95672 238 496.375 C 238 500.79328 234.41828 504.375 230 504.375 C 225.58172 504.375 222 500.79328 222 496.375 C 222 491.95672 225.58172 488.375 230 488.375 z M 346 488.375 C 350.41828 488.375 354 491.95672 354 496.375 C 354 500.79328 350.41828 504.375 346 504.375 C 341.58172 504.375 338 500.79328 338 496.375 C 338 491.95672 341.58172 488.375 346 488.375 z M 624 492.375 C 628.41828 492.375 632 495.95672 632 500.375 C 632 504.79328 628.41828 508.375 624 508.375 C 619.58172 508.375 616 504.79328 616 500.375 C 616 495.95672 619.58172 492.375 624 492.375 z M 378 494.375 C 382.41828 494.375 386 497.95672 386 502.375 C 386 506.79328 382.41828 510.375 378 510.375 C 373.58172 510.375 370 506.79328 370 502.375 C 370 497.95672 373.58172 494.375 378 494.375 z M 134 502.375 C 138.41828 502.375 142 505.95672 142 510.375 C 142 514.79328 138.41828 518.375 134 518.375 C 129.58172 518.375 126 514.79328 126 510.375 C 126 505.95672 129.58172 502.375 134 502.375 z M 512 504.375 C 516.41828 504.375 520 507.95672 520 512.375 C 520 516.79328 516.41828 520.375 512 520.375 C 507.58172 520.375 504 516.79328 504 512.375 C 504 507.95672 507.58172 504.375 512 504.375 z M 462 506.375 C 466.41828 506.375 470 509.95672 470 514.375 C 470 518.79328 466.41828 522.375 462 522.375 C 457.58172 522.375 454 518.79328 454 514.375 C 454 509.95672 457.58172 506.375 462 506.375 z M 298 510.375 C 302.41828 510.375 306 513.95672 306 518.375 C 306 522.79328 302.41828 526.375 298 526.375 C 293.58172 526.375 290 522.79328 290 518.375 C 290 513.95672 293.58172 510.375 298 510.375 z M 546 510.375 C 550.41828 510.375 554 513.95672 554 518.375 C 554 522.79328 550.41828 526.375 546 526.375 C 541.58172 526.375 538 522.79328 538 518.375 C 538 513.95672 541.58172 510.375 546 510.375 z M 580 510.375 C 584.41828 510.375 588 513.95672 588 518.375 C 588 522.79328 584.41828 526.375 580 526.375 C 575.58172 526.375 572 522.79328 572 518.375 C 572 513.95672 575.58172 510.375 580 510.375 z M 248 512.375 C 252.41828 512.375 256 515.95672 256 520.375 C 256 524.79328 252.41828 528.375 248 528.375 C 243.58172 528.375 240 524.79328 240 520.375 C 240 515.95672 243.58172 512.375 248 512.375 z M 214 518.375 C 218.41828 518.375 222 521.95672 222 526.375 C 222 530.79328 218.41828 534.375 214 534.375 C 209.58172 534.375 206 530.79328 206 526.375 C 206 521.95672 209.58172 518.375 214 518.375 z M 178 522.375 C 182.41828 522.375 186 525.95672 186 530.375 C 186 534.79328 182.41828 538.375 178 538.375 C 173.58172 538.375 170 534.79328 170 530.375 C 170 525.95672 173.58172 522.375 178 522.375 z M 494 522.375 C 498.41828 522.375 502 525.95672 502 530.375 C 502 534.79328 498.41828 538.375 494 538.375 C 489.58172 538.375 486 534.79328 486 530.375 C 486 525.95672 489.58172 522.375 494 522.375 z M 608 524.375 C 612.41828 524.375 616 527.95672 616 532.375 C 616 536.79328 612.41828 540.375 608 540.375 C 603.58172 540.375 600 536.79328 600 532.375 C 600 527.95672 603.58172 524.375 608 524.375 z M 264 528.375 C 268.41828 528.375 272 531.95672 272 536.375 C 272 540.79328 268.41828 544.375 264 544.375 C 259.58172 544.375 256 540.79328 256 536.375 C 256 531.95672 259.58172 528.375 264 528.375 z M 336 528.375 C 340.41828 528.375 344 531.95672 344 536.375 C 344 540.79328 340.41828 544.375 336 544.375 C 331.58172 544.375 328 540.79328 328 536.375 C 328 531.95672 331.58172 528.375 336 528.375 z M 424 528.375 C 428.41828 528.375 432 531.95672 432 536.375 C 432 540.79328 428.41828 544.375 424 544.375 C 419.58172 544.375 416 540.79328 416 536.375 C 416 531.95672 419.58172 528.375 424 528.375 z M 378 534.375 C 382.41828 534.375 386 537.95672 386 542.375 C 386 546.79328 382.41828 550.375 378 550.375 C 373.58172 550.375 370 546.79328 370 542.375 C 370 537.95672 373.58172 534.375 378 534.375 z M 150 538.375 C 154.41828 538.375 158 541.95672 158 546.375 C 158 550.79328 154.41828 554.375 150 554.375 C 145.58172 554.375 142 550.79328 142 546.375 C 142 541.95672 145.58172 538.375 150 538.375 z M 470 540.375 C 474.41828 540.375 478 543.95672 478 548.375 C 478 552.79328 474.41828 556.375 470 556.375 C 465.58172 556.375 462 552.79328 462 548.375 C 462 543.95672 465.58172 540.375 470 540.375 z M 560 542.375 C 564.41828 542.375 568 545.95672 568 550.375 C 568 554.79328 564.41828 558.375 560 558.375 C 555.58172 558.375 552 554.79328 552 550.375 C 552 545.95672 555.58172 542.375 560 542.375 z M 286 546.375 C 290.41828 546.375 294 549.95672 294 554.375 C 294 558.79328 290.41828 562.375 286 562.375 C 281.58172 562.375 278 558.79328 278 554.375 C 278 549.95672 281.58172 546.375 286 546.375 z M 446 552.375 C 450.41828 552.375 454 555.95672 454 560.375 C 454 564.79328 450.41828 568.375 446 568.375 C 441.58172 568.375 438 564.79328 438 560.375 C 438 555.95672 441.58172 552.375 446 552.375 z M 196 554.375 C 200.41828 554.375 204 557.95672 204 562.375 C 204 566.79328 200.41828 570.375 196 570.375 C 191.58172 570.375 188 566.79328 188 562.375 C 188 557.95672 191.58172 554.375 196 554.375 z M 500 556.375 C 504.41828 556.375 508 559.95672 508 564.375 C 508 568.79328 504.41828 572.375 500 572.375 C 495.58172 572.375 492 568.79328 492 564.375 C 492 559.95672 495.58172 556.375 500 556.375 z M 314 558.375 C 318.41828 558.375 322 561.95672 322 566.375 C 322 570.79328 318.41828 574.375 314 574.375 C 309.58172 574.375 306 570.79328 306 566.375 C 306 561.95672 309.58172 558.375 314 558.375 z M 258 560.375 C 262.41828 560.375 266 563.95672 266 568.375 C 266 572.79328 262.41828 576.375 258 576.375 C 253.58172 576.375 250 572.79328 250 568.375 C 250 563.95672 253.58172 560.375 258 560.375 z M 580 562.375 C 584.41828 562.375 588 565.95672 588 570.375 C 588 574.79328 584.41828 578.375 580 578.375 C 575.58172 578.375 572 574.79328 572 570.375 C 572 565.95672 575.58172 562.375 580 562.375 z M 422 564.375 C 426.41828 564.375 430 567.95672 430 572.375 C 430 576.79328 426.41828 580.375 422 580.375 C 417.58172 580.375 414 576.79328 414 572.375 C 414 567.95672 417.58172 564.375 422 564.375 z M 342 566.375 C 346.41828 566.375 350 569.95672 350 574.375 C 350 578.79328 346.41828 582.375 342 582.375 C 337.58172 582.375 334 578.79328 334 574.375 C 334 569.95672 337.58172 566.375 342 566.375 z M 364 568.375 C 368.41828 568.375 372 571.95672 372 576.375 C 372 580.79328 368.41828 584.375 364 584.375 C 359.58172 584.375 356 580.79328 356 576.375 C 356 571.95672 359.58172 568.375 364 568.375 z M 392 570.375 C 396.41828 570.375 400 573.95672 400 578.375 C 400 582.79328 396.41828 586.375 392 586.375 C 387.58172 586.375 384 582.79328 384 578.375 C 384 573.95672 387.58172 570.375 392 570.375 z M 534 572.375 C 538.41828 572.375 542 575.95672 542 580.375 C 542 584.79328 538.41828 588.375 534 588.375 C 529.58172 588.375 526 584.79328 526 580.375 C 526 575.95672 529.58172 572.375 534 572.375 z M 178 574.375 C 182.41828 574.375 186 577.95672 186 582.375 C 186 586.79328 182.41828 590.375 178 590.375 C 173.58172 590.375 170 586.79328 170 582.375 C 170 577.95672 173.58172 574.375 178 574.375 z M 224 576.375 C 228.41828 576.375 232 579.95672 232 584.375 C 232 588.79328 228.41828 592.375 224 592.375 C 219.58172 592.375 216 588.79328 216 584.375 C 216 579.95672 219.58172 576.375 224 576.375 z M 444 586.375 C 448.41828 586.375 452 589.95672 452 594.375 C 452 598.79328 448.41828 602.375 444 602.375 C 439.58172 602.375 436 598.79328 436 594.375 C 436 589.95672 439.58172 586.375 444 586.375 z M 316 588.375 C 320.41828 588.375 324 591.95672 324 596.375 C 324 600.79328 320.41828 604.375 316 604.375 C 311.58172 604.375 308 600.79328 308 596.375 C 308 591.95672 311.58172 588.375 316 588.375 z M 504 592.375 C 508.41828 592.375 512 595.95672 512 600.375 C 512 604.79328 508.41828 608.375 504 608.375 C 499.58172 608.375 496 604.79328 496 600.375 C 496 595.95672 499.58172 592.375 504 592.375 z M 554 592.375 C 558.41828 592.375 562 595.95672 562 600.375 C 562 604.79328 558.41828 608.375 554 608.375 C 549.58172 608.375 546 604.79328 546 600.375 C 546 595.95672 549.58172 592.375 554 592.375 z M 256 598.375 C 260.41828 598.375 264 601.95672 264 606.375 C 264 610.79328 260.41828 614.375 256 614.375 C 251.58172 614.375 248 610.79328 248 606.375 C 248 601.95672 251.58172 598.375 256 598.375 z M 380 600.375 C 384.41828 600.375 388 603.95672 388 608.375 C 388 612.79328 384.41828 616.375 380 616.375 C 375.58172 616.375 372 612.79328 372 608.375 C 372 603.95672 375.58172 600.375 380 600.375 z M 208 602.375 C 212.41828 602.375 216 605.95672 216 610.375 C 216 614.79328 212.41828 618.375 208 618.375 C 203.58172 618.375 200 614.79328 200 610.375 C 200 605.95672 203.58172 602.375 208 602.375 z M 472 610.375 C 476.41828 610.375 480 613.95672 480 618.375 C 480 622.79328 476.41828 626.375 472 626.375 C 467.58172 626.375 464 622.79328 464 618.375 C 464 613.95672 467.58172 610.375 472 610.375 z M 290 616.375 C 294.41828 616.375 298 619.95672 298 624.375 C 298 628.79328 294.41828 632.375 290 632.375 C 285.58172 632.375 282 628.79328 282 624.375 C 282 619.95672 285.58172 616.375 290 616.375 z M 518 616.375 C 522.41828 616.375 526 619.95672 526 624.375 C 526 628.79328 522.41828 632.375 518 632.375 C 513.58172 632.375 510 628.79328 510 624.375 C 510 619.95672 513.58172 616.375 518 616.375 z M 436 622.375 C 440.41828 622.375 444 625.95672 444 630.375 C 444 634.79328 440.41828 638.375 436 638.375 C 431.58172 638.375 428 634.79328 428 630.375 C 428 625.95672 431.58172 622.375 436 622.375 z M 324 624.375 C 328.41828 624.375 332 627.95672 332 632.375 C 332 636.79328 328.41828 640.375 324 640.375 C 319.58172 640.375 316 636.79328 316 632.375 C 316 627.95672 319.58172 624.375 324 624.375 z M 242 626.375 C 246.41828 626.375 250 629.95672 250 634.375 C 250 638.79328 246.41828 642.375 242 642.375 C 237.58172 642.375 234 638.79328 234 634.375 C 234 629.95672 237.58172 626.375 242 626.375 z M 400 628.375 C 404.41828 628.375 408 631.95672 408 636.375 C 408 640.79328 404.41828 644.375 400 644.375 C 395.58172 644.375 392 640.79328 392 636.375 C 392 631.95672 395.58172 628.375 400 628.375 z M 362 630.375 C 366.41828 630.375 370 633.95672 370 638.375 C 370 642.79328 366.41828 646.375 362 646.375 C 357.58172 646.375 354 642.79328 354 638.375 C 354 633.95672 357.58172 630.375 362 630.375 z M 484 632.375 C 488.41828 632.375 492 635.95672 492 640.375 C 492 644.79328 488.41828 648.375 484 648.375 C 479.58172 648.375 476 644.79328 476 640.375 C 476 635.95672 479.58172 632.375 484 632.375 z M 276 640.375 C 280.41828 640.375 284 643.95672 284 648.375 C 284 652.79328 280.41828 656.375 276 656.375 C 271.58172 656.375 268 652.79328 268 648.375 C 268 643.95672 271.58172 640.375 276 640.375 z M 442 650.375 C 446.41828 650.375 450 653.95672 450 658.375 C 450 662.79328 446.41828 666.375 442 666.375 C 437.58172 666.375 434 662.79328 434 658.375 C 434 653.95672 437.58172 650.375 442 650.375 z M 320 656.375 C 324.41828 656.375 328 659.95672 328 664.375 C 328 668.79328 324.41828 672.375 320 672.375 C 315.58172 672.375 312 668.79328 312 664.375 C 312 659.95672 315.58172 656.375 320 656.375 z M 360 658.375 C 364.41828 658.375 368 661.95672 368 666.375 C 368 670.79328 364.41828 674.375 360 674.375 C 355.58172 674.375 352 670.79328 352 666.375 C 352 661.95672 355.58172 658.375 360 658.375 z M 404 658.375 C 408.41828 658.375 412 661.95672 412 666.375 C 412 670.79328 408.41828 674.375 404 674.375 C 399.58172 674.375 396 670.79328 396 666.375 C 396 661.95672 399.58172 658.375 404 658.375 z "
       id="path2985" />
    <rect
       style="fill:none;stroke:#000000;stroke-width:0.99331099000000000;stroke-miterlimit:4;stroke-opacity:1;stroke-dasharray:none;opacity:0"
       id="rect3924"
       width="740"
       height="920"
       x="0"
       y="52.362183" />
  </g>
</svg>
